<?xml version="1.0" encoding="UTF-8" standalone="no"?>
<!-- Created with Inkscape (http://www.inkscape.org/) -->

<svg
   width="38.400002mm"
   height="39mm"
   viewBox="0 0 38.400002 39"
   version="1.1"
   id="svg483"
   inkscape:version="1.2 (dc2aedaf03, 2022-05-15)"
   sodipodi:docname="logo1.svg"
   xmlns:inkscape="http://www.inkscape.org/namespaces/inkscape"
   xmlns:sodipodi="http://sodipodi.sourceforge.net/DTD/sodipodi-0.dtd"
   xmlns="http://www.w3.org/2000/svg"
   xmlns:svg="http://www.w3.org/2000/svg">
  <sodipodi:namedview
     id="namedview485"
     pagecolor="#ffffff"
     bordercolor="#000000"
     borderopacity="0.25"
     inkscape:showpageshadow="2"
     inkscape:pageopacity="0.0"
     inkscape:pagecheckerboard="0"
     inkscape:deskcolor="#d1d1d1"
     inkscape:document-units="mm"
     showgrid="true"
     inkscape:zoom="0.74564394"
     inkscape:cx="71.750063"
     inkscape:cy="217.93244"
     inkscape:window-width="1964"
     inkscape:window-height="1231"
     inkscape:window-x="230"
     inkscape:window-y="159"
     inkscape:window-maximized="0"
     inkscape:current-layer="layer1">
    <inkscape:grid
       type="xygrid"
       id="grid600"
       originx="0"
       originy="0" />
  </sodipodi:namedview>
  <defs
     id="defs480">
    <linearGradient
       id="SVGID_29_3_3_3_3_128710"
       gradientUnits="userSpaceOnUse"
       gradientTransform="matrix(-34.1014,81.9995,222.62,92.5814,1386.95,4038.39)"
       x1="0"
       y1="-4.5474735e-13"
       x2="1"
       y2="-4.5474735e-13">
      <stop
         offset="0%"
         style="stop-color:rgb(250,211,6);stop-opacity: 1"
         id="stop73" />
      <stop
         offset="40.32131%"
         style="stop-color:rgb(250,211,6);stop-opacity: 1"
         id="stop75" />
      <stop
         offset="100%"
         style="stop-color:rgb(168,134,30);stop-opacity: 1"
         id="stop77" />
    </linearGradient>
    <linearGradient
       id="SVGID_30_4_4_4_4_128711"
       gradientUnits="userSpaceOnUse"
       gradientTransform="matrix(-85.7071,118.276,141.599,102.608,1789.03,4312.93)"
       x1="0"
       y1="0"
       x2="1"
       y2="0">
      <stop
         offset="0%"
         style="stop-color:rgb(250,211,6);stop-opacity: 1"
         id="stop84" />
      <stop
         offset="26.303687999999998%"
         style="stop-color:rgb(250,211,6);stop-opacity: 1"
         id="stop86" />
      <stop
         offset="100%"
         style="stop-color:rgb(168,134,30);stop-opacity: 1"
         id="stop88" />
    </linearGradient>
  </defs>
  <g
     inkscape:label="Capa 1"
     inkscape:groupmode="layer"
     id="layer1">
    <g
       transform="matrix(0.1496036,0,0,0.1496036,19.19034,19.571031)"
       id="logo-logo">
      <g
         paint-order="stroke"
         id="g103">
        <g
           transform="matrix(0.26538964,0,0,-0.26538964,-52.208599,-54.730964)"
           id="g71">
          <path
             style="opacity:1;fill:#222f43;fill-rule:nonzero;stroke:none;stroke-width:1;stroke-linecap:butt;stroke-linejoin:miter;stroke-miterlimit:10;stroke-dasharray:none;stroke-dashoffset:0"
             paint-order="stroke"
             transform="translate(-1477.0853,-4483.049)"
             d="m 1193.01,4225.85 v 480.6 c 0,33.52 27.17,60.69 60.69,60.69 h 480.57 c 23.91,0 35.88,-28.9 18.98,-45.81 l -514.42,-514.45 c -16.91,-16.92 -45.82,-4.94 -45.82,18.97 z m 96.22,445.08 v -285.14 l 285.13,285.14 z"
             stroke-linecap="round"
             id="path69" />
        </g>
        <g
           transform="matrix(0.26538964,0,0,-0.26538964,-55.269812,30.116867)"
           id="g82">
          <linearGradient
             id="linearGradient460"
             gradientUnits="userSpaceOnUse"
             gradientTransform="matrix(-34.1014,81.9995,222.62,92.5814,1386.95,4038.39)"
             x1="0"
             y1="-4.5474735e-13"
             x2="1"
             y2="-4.5474735e-13">
            <stop
               offset="0%"
               style="stop-color:rgb(250,211,6);stop-opacity: 1"
               id="stop454" />
            <stop
               offset="40.32131%"
               style="stop-color:rgb(250,211,6);stop-opacity: 1"
               id="stop456" />
            <stop
               offset="100%"
               style="stop-color:rgb(168,134,30);stop-opacity: 1"
               id="stop458" />
          </linearGradient>
          <path
             style="opacity:1;fill:url(#SVGID_29_3_3_3_3_128710);fill-rule:nonzero;stroke:none;stroke-width:1;stroke-linecap:butt;stroke-linejoin:miter;stroke-miterlimit:10;stroke-dasharray:none;stroke-dashoffset:0"
             paint-order="stroke"
             transform="translate(-1465.55,-4163.325)"
             d="m 1511.83,4313.9 -92.56,-92.56 v -208.59 l 71.87,51.3 20.69,41.26 v 208.59"
             stroke-linecap="round"
             id="path80" />
        </g>
        <g
           transform="matrix(0.26538964,0,0,-0.26538964,40.506603,-33.494404)"
           id="g93">
          <linearGradient
             id="linearGradient470"
             gradientUnits="userSpaceOnUse"
             gradientTransform="matrix(-85.7071,118.276,141.599,102.608,1789.03,4312.93)"
             x1="0"
             y1="0"
             x2="1"
             y2="0">
            <stop
               offset="0%"
               style="stop-color:rgb(250,211,6);stop-opacity: 1"
               id="stop464" />
            <stop
               offset="26.303687999999998%"
               style="stop-color:rgb(250,211,6);stop-opacity: 1"
               id="stop466" />
            <stop
               offset="100%"
               style="stop-color:rgb(168,134,30);stop-opacity: 1"
               id="stop468" />
          </linearGradient>
          <path
             style="opacity:1;fill:url(#SVGID_30_4_4_4_4_128711);fill-rule:nonzero;stroke:none;stroke-width:1;stroke-linecap:butt;stroke-linejoin:miter;stroke-miterlimit:10;stroke-dasharray:none;stroke-dashoffset:0"
             paint-order="stroke"
             transform="translate(-1826.455,-4403.025)"
             d="m 1760.03,4522.91 -33.63,-86.22 c 63.44,-24.74 106.33,-85.97 108.92,-153.55 l 91.19,23 c -10.99,96.16 -75.01,181.09 -166.48,216.77"
             stroke-linecap="round"
             id="path91" />
        </g>
        <g
           transform="matrix(0.26538964,0,0,-0.26538964,-7.9846449e-4,31.146487)"
           id="g97">
          <path
             style="opacity:1;fill:#f9d306;fill-rule:nonzero;stroke:none;stroke-width:1;stroke-linecap:butt;stroke-linejoin:miter;stroke-miterlimit:10;stroke-dasharray:none;stroke-dashoffset:0"
             paint-order="stroke"
             transform="translate(-1673.815,-4159.445)"
             d="m 1835.32,4283.14 c 0.07,-2.1 0.48,-4.17 0.48,-6.32 0,-94.57 -76.94,-171.51 -171.51,-171.51 h -152.46 l -41.26,-41.26 -51.3,-51.3 h 245.02 c 145.62,0 264.07,118.46 264.07,264.07 0,9.88 -0.75,19.64 -1.85,29.32 l -91.19,-23"
             stroke-linecap="round"
             id="path95" />
        </g>
        <g
           transform="matrix(0.26538964,0,0,-0.26538964,0,9.9581335)"
           id="g101">
          <path
             style="opacity:1;fill:#222f43;fill-rule:nonzero;stroke:none;stroke-width:1;stroke-linecap:butt;stroke-linejoin:miter;stroke-miterlimit:10;stroke-dasharray:none;stroke-dashoffset:0"
             paint-order="stroke"
             transform="translate(-1673.818,-4239.287)"
             d="m 1656.35,3786.49 h -405.89 c -31.73,0 -57.45,25.72 -57.45,57.46 v 127.31 c 0,15.24 6.05,29.85 16.83,40.63 l 665.73,665.74 c 16.53,16.54 42.4,19.19 61.95,6.37 l 0.44,-0.29 c 148.63,-100.39 231.38,-272.86 214.5,-453.17 -23.71,-253.25 -241.76,-444.05 -496.11,-444.05 z m -370.78,92.56 h 378.72 c 219.34,0 397.77,178.43 397.77,397.77 0,120.66 -54.5,233.79 -147.34,309.06 l -629.15,-629.15 v -77.68"
             stroke-linecap="round"
             id="path99" />
        </g>
      </g>
    </g>
  </g>
</svg>
